<?xml version="1.0" standalone="no"?>
<!DOCTYPE svg PUBLIC "-//W3C//DTD SVG 20010904//EN"
 "http://www.w3.org/TR/2001/REC-SVG-20010904/DTD/svg10.dtd">
<svg version="1.0" xmlns="http://www.w3.org/2000/svg"
 width="260.000000pt" height="260.000000pt" viewBox="0 0 260.000000 260.000000"
 preserveAspectRatio="xMidYMid meet">
<metadata>
Created by potrace 1.11, written by Peter Selinger 2001-2013
</metadata>
<g transform="translate(0.000000,260.000000) scale(0.100000,-0.100000)"
fill="#000000" stroke="none">
<path d="M595 1870 c-41 -7 -52 -31 -32 -71 9 -19 17 -30 17 -26 0 5 19 -10
42 -32 22 -23 48 -41 57 -41 14 0 14 -2 1 -10 -13 -8 -13 -10 2 -10 12 0 15
-5 11 -17 -6 -16 -5 -17 12 -3 17 14 18 13 12 -3 -4 -11 -3 -16 4 -12 15 10
40 -16 34 -35 -7 -21 20 -47 30 -30 4 7 2 17 -4 23 -9 9 -11 7 -5 -8 6 -16 5
-18 -7 -7 -9 8 -10 15 -3 22 7 7 24 -2 55 -30 42 -39 43 -41 25 -55 -11 -8
-15 -15 -9 -15 7 0 15 5 18 10 9 15 32 12 38 -4 4 -10 -1 -13 -16 -10 -21 4
-21 4 -2 -5 12 -5 25 -5 31 0 8 7 12 2 12 -16 0 -13 -4 -22 -9 -20 -4 3 -10 1
-13 -4 -4 -5 2 -8 11 -6 10 1 17 10 17 19 -2 21 2 20 27 -5 17 -17 18 -23 8
-37 -12 -16 -11 -16 6 0 17 16 21 15 69 -25 28 -23 62 -53 77 -67 39 -39 103
-76 123 -71 5 1 6 -4 3 -12 -3 -8 -1 -20 4 -28 7 -12 9 -12 10 1 1 8 1 18 1
21 -1 4 19 6 44 4 24 -1 47 2 50 7 3 4 10 6 15 3 5 -4 9 -1 9 4 0 6 6 11 14
11 8 0 21 7 30 15 8 9 17 11 21 6 9 -16 35 -1 35 21 0 11 7 26 15 34 8 9 15
11 15 5 0 -6 11 -10 25 -9 14 1 25 6 25 11 0 5 -9 5 -20 2 -28 -9 -25 1 10 35
17 16 30 27 30 25 0 -5 36 24 70 55 33 31 109 90 115 90 3 0 3 -5 -1 -12 -5
-7 -3 -8 5 -4 7 5 10 13 8 20 -2 6 10 22 27 36 16 14 27 18 22 10 -4 -8 2 -3
14 12 16 20 28 26 49 23 15 -2 34 1 42 7 11 8 10 9 -5 4 -14 -5 -17 -2 -12 9
3 9 2 13 -4 10 -6 -3 -10 -1 -10 4 0 6 7 11 15 11 8 0 15 5 15 11 0 5 4 8 8 5
5 -3 15 6 22 19 7 14 17 25 22 25 14 0 37 26 48 54 8 22 6 28 -16 42 -23 16
-89 17 -703 18 -372 1 -690 -1 -706 -4z m1295 -200 c0 -5 -4 -10 -10 -10 -5 0
-10 5 -10 10 0 6 5 10 10 10 6 0 10 -4 10 -10z m-438 -362 c-7 -7 -12 -8 -12
-2 0 6 3 14 7 17 3 4 9 5 12 2 2 -3 -1 -11 -7 -17z"/>
<path d="M1996 1753 c-4 -9 -3 -20 1 -24 4 -4 9 3 9 17 2 28 -1 31 -10 7z"/>
<path d="M590 1740 c0 -6 5 -8 11 -4 7 4 9 0 5 -14 -8 -23 8 -39 20 -21 4 8 3
9 -4 5 -8 -5 -11 0 -9 15 1 12 -4 24 -10 26 -7 3 -13 0 -13 -7z"/>
<path d="M1962 1725 c-15 -32 -15 -35 0 -35 6 0 8 3 5 6 -3 4 -2 15 4 26 6 11
9 22 6 24 -2 2 -9 -7 -15 -21z"/>
<path d="M631 1687 c-8 -10 -7 -14 4 -14 8 0 12 4 9 8 -2 4 2 10 8 12 8 4 9 6
2 6 -6 1 -17 -5 -23 -12z"/>
<path d="M1920 1686 c0 -2 7 -7 16 -10 8 -3 12 -2 9 4 -6 10 -25 14 -25 6z"/>
<path d="M386 1665 c-32 -11 -61 -36 -67 -55 -13 -50 -17 -739 -4 -744 6 -3 4
-5 -3 -5 -7 -1 -11 -5 -8 -9 3 -5 6 -38 7 -75 1 -36 6 -64 11 -61 4 3 8 -1 8
-9 0 -8 9 -22 20 -32 22 -20 27 -45 8 -45 -6 0 -8 -3 -5 -6 4 -4 13 -1 22 6
12 10 15 10 15 -4 0 -9 3 -15 8 -14 15 4 52 -27 52 -44 0 -10 4 -18 10 -18 5
0 7 8 4 18 -4 10 -3 13 3 6 4 -6 19 -10 33 -9 14 1 30 0 35 -4 6 -3 15 -6 20
-7 6 0 16 -2 23 -2 7 -1 10 -7 7 -12 -5 -8 -11 -7 -21 1 -10 8 -14 8 -14 0 0
-6 5 -11 11 -11 5 0 7 -6 3 -12 -4 -7 2 -4 14 6 14 12 19 23 13 30 -6 8 1 11
25 11 21 1 34 -4 34 -12 0 -7 -4 -13 -10 -13 -5 0 -10 5 -10 11 0 5 -5 7 -11
3 -8 -5 -7 -9 4 -15 17 -10 50 -1 42 11 -3 5 0 12 7 16 7 4 10 4 6 0 -10 -12
23 -45 38 -39 8 3 14 10 14 15 0 6 -6 5 -15 -2 -10 -9 -15 -9 -15 -1 0 6 0 14
0 18 0 4 6 8 15 9 8 1 15 -2 15 -7 0 -11 22 -7 33 6 5 6 5 -1 2 -15 -6 -22 -5
-23 6 -9 22 26 48 30 58 10 7 -12 7 -21 0 -28 -6 -6 -5 -10 5 -10 8 0 12 5 9
10 -4 7 1 8 13 4 18 -7 18 -7 0 8 -17 13 -18 17 -6 28 10 9 12 9 6 0 -9 -16
-1 -16 24 -3 15 8 21 6 28 -7 5 -10 8 -24 6 -31 -1 -7 0 -8 3 -2 2 5 9 10 14
10 6 0 7 -4 4 -10 -3 -5 -1 -10 4 -10 17 0 13 18 -6 29 -15 8 -16 12 -4 23 10
9 12 10 7 1 -9 -16 -1 -16 24 -3 15 8 20 6 25 -11 4 -11 9 -18 12 -15 4 3 12
-2 20 -12 13 -15 13 -15 4 5 -6 12 -16 23 -23 25 -9 3 -9 6 0 12 7 4 12 2 12
-4 0 -6 5 -8 10 -5 15 9 51 -5 44 -16 -4 -6 -11 -6 -20 2 -10 8 -14 8 -14 0 0
-6 5 -11 11 -11 5 0 7 -6 3 -12 -4 -7 2 -4 14 6 15 13 19 23 13 30 -7 8 -2 11
15 11 13 -1 27 -5 31 -8 3 -4 13 -1 21 6 13 9 14 9 8 0 -4 -8 -2 -13 8 -13 8
0 17 -6 20 -12 3 -7 3 -3 0 10 -5 21 -4 22 14 11 17 -10 24 -10 39 1 10 8 15
10 11 6 -8 -9 28 -40 47 -42 19 -1 36 18 26 30 -7 8 1 11 25 11 33 1 44 -8 24
-20 -5 -3 -10 -1 -10 5 0 6 -5 8 -11 4 -8 -4 -6 -10 6 -17 13 -7 20 -5 27 7
12 22 31 20 59 -5 l24 -20 -25 6 c-22 5 -23 4 -7 -5 15 -9 22 -8 38 6 12 11
16 21 10 28 -6 8 1 11 25 11 21 1 34 -4 34 -12 0 -7 -4 -13 -10 -13 -5 0 -10
5 -10 11 0 5 -5 7 -11 3 -18 -11 18 -27 37 -16 9 5 14 13 12 17 -5 14 39 13
64 -1 13 -7 21 -14 18 -14 -24 -6 -50 -5 -50 2 0 4 -5 8 -11 8 -8 0 -8 -4 0
-13 12 -15 38 -16 59 -3 9 5 10 12 3 19 -7 9 0 12 25 12 33 1 44 -8 24 -20 -5
-3 -10 -1 -10 5 0 6 -5 8 -11 4 -8 -4 -6 -10 6 -17 13 -7 20 -5 27 7 12 22 31
20 59 -5 l24 -20 -25 6 c-22 5 -23 4 -7 -5 15 -9 22 -8 38 6 12 11 16 21 10
28 -6 8 1 11 25 11 21 1 34 -4 34 -12 0 -7 -4 -13 -10 -13 -5 0 -10 5 -10 11
0 5 -5 7 -11 3 -8 -5 -6 -10 5 -16 18 -10 50 3 44 18 -4 12 75 11 85 -1 4 -6
10 -5 16 4 7 11 9 11 13 0 5 -12 9 -12 28 -1 20 12 21 12 15 -10 -8 -23 -7
-23 13 2 25 30 29 15 5 -20 l-17 -25 22 19 c12 11 22 25 22 33 0 15 16 17 25
3 3 -5 12 -10 18 -10 7 0 6 4 -3 10 -13 8 -13 11 -1 22 12 11 13 10 7 -2 -5
-9 -2 -9 7 2 8 10 17 15 20 11 4 -3 2 -12 -4 -19 -8 -10 -6 -11 15 -1 17 8 21
13 11 15 -18 4 -19 14 -3 30 15 15 31 16 22 0 -4 -7 -3 -8 5 -4 6 4 9 12 6 17
-5 8 25 61 45 79 7 7 12 30 14 65 1 17 5 35 9 42 4 6 4 14 -1 17 -10 6 -9 67
2 84 4 7 4 12 -1 12 -10 0 -10 190 0 206 3 6 3 14 0 18 -4 4 -8 100 -9 214 0
114 -2 215 -3 226 0 10 -17 33 -36 51 -30 29 -38 32 -69 25 -31 -7 -53 -20
-96 -58 -37 -32 -79 -66 -122 -99 -27 -21 -48 -41 -48 -45 0 -4 -7 -8 -15 -8
-8 0 -15 -3 -15 -8 0 -4 -34 -34 -76 -66 -41 -33 -85 -68 -97 -79 -12 -10 -35
-28 -50 -40 -16 -12 -36 -29 -45 -38 -10 -8 -39 -33 -67 -55 -27 -21 -61 -50
-75 -63 -14 -13 -47 -33 -74 -45 -83 -38 -159 -18 -265 70 -19 16 -63 53 -97
82 -34 28 -65 52 -69 52 -3 0 -16 10 -29 23 -13 12 -32 29 -42 37 -11 8 -66
53 -124 100 -58 46 -107 87 -110 90 -3 3 -21 17 -40 31 -19 15 -45 35 -57 45
-90 78 -102 84 -147 69z m898 -1116 c19 3 28 0 22 -6 -17 -17 -60 2 -49 21 3
4 9 3 13 -4 4 -6 10 -11 14 -11z m184 -4 c2 -2 -1 -6 -6 -9 -5 -3 -18 4 -28
16 -19 21 -19 21 6 8 14 -7 26 -14 28 -15z m320 0 c2 -2 -1 -6 -6 -9 -5 -3
-18 4 -28 16 -19 21 -19 21 6 8 14 -7 26 -14 28 -15z"/>
<path d="M1850 1636 c0 -8 4 -17 9 -20 5 -4 7 3 4 14 -6 23 -13 26 -13 6z"/>
<path d="M735 1630 c6 -10 4 -12 -11 -6 -15 6 -17 5 -6 -5 9 -9 15 -10 23 -2
8 8 7 13 -2 18 -8 6 -10 4 -4 -5z"/>
<path d="M1895 1631 c-3 -5 -2 -12 3 -15 5 -3 9 1 9 9 0 17 -3 19 -12 6z"/>
<path d="M1792 1591 c-11 -7 -10 -9 3 -14 9 -4 14 -3 10 2 -3 5 1 12 7 14 7 3
9 6 3 6 -5 0 -16 -3 -23 -8z"/>
<path d="M730 1581 c0 -6 4 -13 10 -16 6 -3 7 1 4 9 -7 18 -14 21 -14 7z"/>
<path d="M1855 1580 c3 -5 8 -10 11 -10 2 0 4 5 4 10 0 6 -5 10 -11 10 -5 0
-7 -4 -4 -10z"/>
<path d="M799 1578 c-6 -12 -5 -48 1 -48 4 0 7 11 6 25 -1 22 -3 30 -7 23z"/>
<path d="M820 1561 c0 -5 7 -12 16 -15 14 -5 15 -4 4 9 -14 17 -20 19 -20 6z"/>
<path d="M1724 1539 c-3 -6 -1 -16 5 -22 9 -9 10 -7 5 7 -6 15 -4 17 6 11 9
-5 11 -4 6 3 -9 15 -13 15 -22 1z"/>
<path d="M1700 1512 c0 -7 -6 -11 -12 -9 -7 1 -14 -8 -16 -21 -2 -14 -8 -20
-15 -16 -7 4 -8 3 -4 -1 17 -20 34 -13 29 13 -3 16 -1 23 6 18 12 -7 28 12 18
21 -3 4 -6 1 -6 -5z"/>
<path d="M1733 1485 c0 -8 4 -12 9 -9 5 3 6 10 3 15 -9 13 -12 11 -12 -6z"/>
<path d="M1607 1440 c-19 -22 -21 -30 -9 -30 5 0 14 11 20 25 14 30 12 31 -11
5z"/>
<path d="M1636 1442 c-3 -5 1 -9 9 -9 8 0 12 4 9 9 -3 4 -7 8 -9 8 -2 0 -6 -4
-9 -8z"/>
<path d="M930 1425 c0 -5 5 -17 10 -25 5 -8 10 -10 10 -5 0 6 -5 17 -10 25 -5
8 -10 11 -10 5z"/>
<path d="M975 1420 c-3 -5 -2 -10 4 -10 5 0 13 5 16 10 3 6 2 10 -4 10 -5 0
-13 -4 -16 -10z"/>
<path d="M999 1408 c-6 -22 -5 -38 3 -38 6 0 8 7 4 15 -7 20 8 19 28 -1 9 -8
16 -11 16 -5 0 13 -47 40 -51 29z"/>
<path d="M1555 1399 c-11 -16 -1 -19 13 -3 7 8 8 14 3 14 -5 0 -13 -5 -16 -11z"/>
<path d="M1054 1359 c-4 -8 -3 -9 4 -5 7 4 12 3 12 -2 0 -5 11 -17 25 -26 33
-21 32 -17 -4 17 -21 19 -32 24 -37 16z"/>
<path d="M1486 1323 c-6 -14 -5 -15 5 -6 7 7 10 15 7 18 -3 3 -9 -2 -12 -12z"/>
<path d="M1080 1306 c0 -2 7 -7 16 -10 8 -3 12 -2 9 4 -6 10 -25 14 -25 6z"/>
<path d="M1121 1293 c-2 -20 16 -24 30 -5 13 15 12 16 -3 4 -13 -10 -17 -10
-21 0 -4 9 -6 9 -6 1z"/>
<path d="M1410 1275 c-11 -13 -10 -14 4 -9 9 3 16 10 16 15 0 13 -6 11 -20 -6z"/>
<path d="M1171 1272 c-1 -7 -5 -11 -9 -8 -5 3 -9 -1 -9 -9 0 -8 5 -11 11 -7 6
3 17 7 24 8 8 2 17 6 20 10 4 4 -1 4 -10 1 -9 -3 -19 -1 -22 6 -3 9 -5 8 -5
-1z"/>
<path d="M1374 1255 c-4 -8 -10 -12 -15 -9 -5 3 -9 3 -9 0 0 -3 8 -10 18 -15
14 -7 17 -5 18 15 2 27 -4 31 -12 9z"/>
<path d="M1450 1259 c0 -5 5 -7 10 -4 6 3 10 8 10 11 0 2 -4 4 -10 4 -5 0 -10
-5 -10 -11z"/>
<path d="M1195 1240 c-3 -5 -2 -10 4 -10 5 0 13 5 16 10 3 6 2 10 -4 10 -5 0
-13 -4 -16 -10z"/>
<path d="M1274 1239 c-3 -6 -1 -16 5 -22 6 -6 11 -7 11 -2 0 5 6 1 13 -10 11
-14 16 -15 22 -5 5 8 4 11 -2 7 -6 -4 -14 0 -17 9 -3 9 -11 12 -18 8 -8 -5 -9
-2 -5 9 7 19 2 23 -9 6z"/>
<path d="M1316 1241 c-3 -4 6 -13 19 -19 30 -14 31 -12 5 10 -10 10 -22 14
-24 9z"/>
<path d="M1215 1221 c-6 -11 13 -26 22 -17 4 3 1 6 -6 6 -7 0 -9 5 -6 10 3 6
4 10 1 10 -3 0 -7 -4 -11 -9z"/>
<path d="M1186 1202 c-3 -5 1 -9 9 -9 8 0 12 4 9 9 -3 4 -7 8 -9 8 -2 0 -6 -4
-9 -8z"/>
<path d="M1250 1199 c0 -5 5 -7 10 -4 6 3 10 8 10 11 0 2 -4 4 -10 4 -5 0 -10
-5 -10 -11z"/>
<path d="M1366 1202 c-3 -5 1 -9 9 -9 8 0 12 4 9 9 -3 4 -7 8 -9 8 -2 0 -6 -4
-9 -8z"/>
<path d="M300 686 c0 -2 8 -10 18 -17 15 -13 16 -12 3 4 -13 16 -21 21 -21 13z"/>
<path d="M340 660 c0 -5 5 -10 11 -10 5 0 7 5 4 10 -3 6 -8 10 -11 10 -2 0 -4
-4 -4 -10z"/>
<path d="M2213 655 c-3 -9 -3 -19 1 -22 3 -4 6 1 6 11 0 10 5 14 12 10 7 -4 8
-3 4 4 -10 16 -15 15 -23 -3z"/>
<path d="M400 603 c0 -15 18 -35 23 -27 3 5 -1 15 -9 22 -8 7 -14 9 -14 5z"/>
<path d="M387 559 c7 -7 15 -10 18 -7 3 3 -2 9 -12 12 -14 6 -15 5 -6 -5z"/>
<path d="M496 551 c-7 -10 6 -16 28 -12 5 1 5 -6 2 -16 -6 -14 -5 -16 5 -5 10
9 10 15 1 24 -7 7 -12 8 -12 3 0 -6 -4 -4 -9 4 -6 9 -11 10 -15 2z"/>
<path d="M1095 551 c-3 -6 -1 -11 5 -11 6 0 15 -10 20 -22 5 -13 9 -16 9 -8 1
22 -26 54 -34 41z"/>
<path d="M1887 538 c14 -15 33 -16 33 -2 0 3 -5 2 -12 -2 -7 -5 -9 -2 -6 7 4
10 -1 15 -13 15 -17 0 -17 -2 -2 -18z"/>
<path d="M787 536 c-4 -10 1 -12 14 -9 23 6 24 9 5 16 -8 3 -17 0 -19 -7z"/>
<path d="M877 539 c7 -7 15 -10 18 -7 3 3 -2 9 -12 12 -14 6 -15 5 -6 -5z"/>
<path d="M962 530 c7 -11 16 -20 20 -20 5 0 3 9 -4 20 -7 11 -16 20 -20 20 -5
0 -3 -9 4 -20z"/>
<path d="M1139 538 c7 -10 11 -25 7 -33 -3 -9 -2 -13 4 -10 15 10 12 31 -7 46
-16 13 -17 12 -4 -3z"/>
<path d="M1387 536 c-3 -8 0 -22 7 -32 10 -13 15 -14 21 -4 5 8 4 11 -2 7 -15
-10 -24 18 -10 32 8 8 8 11 0 11 -6 0 -13 -6 -16 -14z"/>
<path d="M1707 536 c-3 -8 0 -22 7 -32 10 -13 15 -14 21 -4 5 8 4 11 -2 7 -15
-10 -24 18 -10 32 8 8 8 11 0 11 -6 0 -13 -6 -16 -14z"/>
<path d="M1930 539 c0 -5 5 -7 10 -4 6 3 10 8 10 11 0 2 -4 4 -10 4 -5 0 -10
-5 -10 -11z"/>
<path d="M2075 529 c-4 -12 -3 -25 2 -29 4 -5 8 4 9 21 1 34 -2 37 -11 8z"/>
<path d="M2116 535 c-11 -8 -15 -15 -9 -15 6 0 16 7 23 15 16 19 11 19 -14 0z"/>
<path d="M461 537 c2 -1 14 -11 27 -21 12 -11 22 -16 22 -13 0 10 -31 37 -42
37 -6 0 -9 -1 -7 -3z"/>
<path d="M732 524 c-7 -8 -8 -14 -3 -14 10 0 25 19 20 25 -2 1 -10 -3 -17 -11z"/>
<path d="M1194 511 c0 -16 4 -27 8 -25 4 2 5 14 3 26 -7 32 -13 32 -11 -1z"/>
<path d="M1226 526 c10 -8 21 -12 24 -10 5 6 -21 24 -34 24 -6 0 -1 -6 10 -14z"/>
<path d="M1964 532 c-6 -4 -14 -16 -17 -27 -7 -18 -6 -19 6 -3 8 10 18 14 22
10 5 -4 5 -2 2 5 -4 6 -1 14 5 16 7 3 9 6 3 6 -5 0 -15 -3 -21 -7z"/>
<path d="M2000 535 c0 -5 5 -17 10 -25 5 -8 10 -10 10 -5 0 6 -5 17 -10 25 -5
8 -10 11 -10 5z"/>
<path d="M600 521 c0 -5 7 -11 14 -14 10 -4 13 -1 9 9 -6 15 -23 19 -23 5z"/>
<path d="M660 526 c0 -2 7 -7 16 -10 8 -3 12 -2 9 4 -6 10 -25 14 -25 6z"/>
<path d="M1080 519 c0 -5 5 -7 10 -4 6 3 10 8 10 11 0 2 -4 4 -10 4 -5 0 -10
-5 -10 -11z"/>
<path d="M1319 528 c-6 -22 -5 -38 3 -38 6 0 7 7 4 16 -5 12 -2 15 10 10 8 -3
18 -6 20 -6 3 0 3 -4 0 -8 -3 -5 2 -9 11 -9 12 0 11 5 -7 19 -19 16 -38 23
-41 16z"/>
<path d="M1480 519 c0 -5 5 -7 10 -4 6 3 10 8 10 11 0 2 -4 4 -10 4 -5 0 -10
-5 -10 -11z"/>
<path d="M1530 519 c-12 -8 -10 -9 9 -4 17 5 22 4 16 -5 -5 -9 -4 -11 4 -6 6
4 9 12 6 17 -8 12 -16 11 -35 -2z"/>
<path d="M1639 528 c-6 -22 -5 -38 3 -38 6 0 7 7 4 16 -5 12 -2 15 10 10 8 -3
18 -6 20 -6 3 0 3 -4 0 -8 -3 -5 2 -9 11 -9 12 0 11 5 -7 19 -19 16 -38 23
-41 16z"/>
<path d="M1800 519 c0 -5 5 -7 10 -4 6 3 10 8 10 11 0 2 -4 4 -10 4 -5 0 -10
-5 -10 -11z"/>
<path d="M1850 519 c-12 -8 -10 -9 9 -4 17 5 22 4 16 -5 -5 -9 -4 -11 4 -6 6
4 9 12 6 17 -8 12 -16 11 -35 -2z"/>
<path d="M786 505 c-11 -8 -15 -15 -9 -15 6 0 16 7 23 15 16 19 11 19 -14 0z"/>
<path d="M1906 504 c-11 -8 -16 -14 -10 -14 13 0 39 18 34 24 -3 2 -14 -2 -24
-10z"/>
<path d="M868 503 c6 -2 9 -10 6 -15 -4 -7 -2 -8 5 -4 13 9 5 26 -12 25 -9 0
-8 -2 1 -6z"/>
<path d="M996 502 c-3 -4 4 -9 15 -9 23 -2 25 3 4 10 -8 4 -16 3 -19 -1z"/>
<path d="M1580 500 c-9 -6 -10 -10 -3 -10 6 0 15 5 18 10 8 12 4 12 -15 0z"/>
</g>
</svg>
